<svg width="698" height="699" viewBox="0 0 698 699" fill="none" xmlns="http://www.w3.org/2000/svg">
<path d="M16.9704 20.0322L14.019 687.031" stroke="white" stroke-dasharray="2 2"/>
<path d="M482.55 20.0322L479.598 687.031" stroke="white" stroke-dasharray="2 2"/>
<path d="M549.693 20.0322L546.742 687.031" stroke="white" stroke-dasharray="2 2"/>
<path d="M616.099 20.0322L613.148 687.031" stroke="white" stroke-dasharray="2 2"/>
<path d="M683.981 20.0322L681.03 687.031" stroke="white" stroke-dasharray="2 2"/>
<path d="M15.4947 17.0645L683.981 18.5484" stroke="white" stroke-dasharray="2 2"/>
<path d="M15.4947 85.3225L683.981 86.8064" stroke="white" stroke-dasharray="2 2"/>
<path d="M15.4947 152.838L683.981 154.322" stroke="white" stroke-dasharray="2 2"/>
<path d="M15.4947 218.871L683.981 220.355" stroke="white" stroke-dasharray="2 2"/>
<path d="M15.4947 285.645L683.981 287.129" stroke="white" stroke-dasharray="2 2"/>
<path d="M15.4947 351.677L683.981 353.161" stroke="white" stroke-dasharray="2 2"/>
<path d="M15.4947 419.193L683.981 420.677" stroke="white" stroke-dasharray="2 2"/>
<path d="M15.4947 485.225L683.981 486.709" stroke="white" stroke-dasharray="2 2"/>
<path d="M15.4947 551.257L683.981 552.741" stroke="white" stroke-dasharray="2 2"/>
<path d="M15.4947 618.032L683.981 619.515" stroke="white" stroke-dasharray="2 2"/>
<path d="M15.4947 684.064L683.981 685.547" stroke="white" stroke-dasharray="2 2"/>
<path d="M15.4947 351.677L683.981 353.161" stroke="white" stroke-dasharray="2 2"/>
<path d="M83.3763 20.0322L80.4249 687.031" stroke="white" stroke-dasharray="2 2"/>
<path d="M150.52 20.0322L147.569 687.031" stroke="white" stroke-dasharray="2 2"/>
<path d="M216.926 20.0322L213.975 687.031" stroke="white" stroke-dasharray="2 2"/>
<path d="M283.332 20.0322L280.381 687.031" stroke="white" stroke-dasharray="2 2"/>
<path d="M349 20.0322L346.049 687.031" stroke="white" stroke-dasharray="2 2"/>
<path d="M416.144 20.0322L413.192 687.031" stroke="white" stroke-dasharray="2 2"/>
<path d="M46.7732 37.6531L21.5876 51.9354V155.806L46.7732 175.282V202.548L7.19588 168.79H0V127.242L7.19588 119.451V37.6531L0 32.4596V7.79028L14.3918 -3.05176e-05H357.995L375.985 16.879H680.01L698 37.6531H663.82L654.836 27.2661H548.686L532.723 37.6531H521.701L509.108 27.2661H400.649L384.979 37.6531H370.588L343.603 7.79028H97.1443L66.5619 23.3709L82.7526 31.1612L80.9536 37.6531H46.7732Z" fill="url(#paint0_radial_1_341)"/>
<path d="M40.3219 661.493L51.3955 680.554L132.741 681.036L148.104 662.132L169.457 662.258L142.845 691.951L142.813 697.378L110.275 697.185L104.206 691.722L40.147 691.342L36.0479 696.745L16.7285 696.631L10.6912 685.74L12.2099 426.595L25.508 413.105L26.807 221.732L43.1555 208.261L43.0492 226.405L34.4058 240.447L34.4058 282.902L42.4528 297.875L42.421 303.302L34.2309 312.751L33.7777 390.088L41.8167 406.418L41.7531 417.272L18.2472 437.485L17.1579 623.364L29.2244 646.502L35.3969 634.327L40.473 635.714L40.3219 661.493Z" fill="url(#paint1_linear_1_341)"/>
<path d="M648.018 662.513L633.078 681.459L525.233 680.82L505.124 661.666L476.814 661.498L511.689 691.616L511.657 697.054L554.795 697.31L562.915 691.92L647.842 692.423L653.203 697.893L678.816 698.045L686.968 687.216L688.49 427.542L671.045 413.842L672.391 184.078L650.902 170.355L650.751 196.186L665.508 208.51L661.025 283.261L650.153 298.153L650.121 303.591L660.85 313.172L660.396 390.666L649.516 406.917L649.452 417.793L680.338 438.37L679.246 624.629L662.934 647.646L654.917 635.362L648.169 636.681L648.018 662.513Z" fill="white" fill-opacity="0.25"/>
<defs>
<radialGradient id="paint0_radial_1_341" cx="0" cy="0" r="1" gradientUnits="userSpaceOnUse" gradientTransform="translate(306.574 59.3547) rotate(73.4962) scale(149.346 515.123)">
<stop stop-color="white"/>
<stop offset="1" stop-color="#AFAFAF" stop-opacity="0"/>
</radialGradient>
<linearGradient id="paint1_linear_1_341" x1="-174.57" y1="783.459" x2="415.71" y2="314.538" gradientUnits="userSpaceOnUse">
<stop offset="0.0373315" stop-color="white"/>
<stop offset="1" stop-color="#84BBE0" stop-opacity="0"/>
</linearGradient>
</defs>
</svg>
