<svg width="42" height="43" viewBox="0 0 42 43" fill="none" xmlns="http://www.w3.org/2000/svg">
<rect y="0.110596" width="41.3484" height="42.0492" rx="20" fill="white"/>
<g clip-path="url(#clip0_134_14)">
<mask id="mask0_134_14" style="mask-type:luminance" maskUnits="userSpaceOnUse" x="5" y="5" width="31" height="31">
<path d="M5 5H36V36H5V5Z" fill="white"/>
</mask>
<g mask="url(#mask0_134_14)">
<path d="M25.3945 14.7895C25.3944 16.3041 24.7926 17.7567 23.7215 18.8276C22.6505 19.8985 21.1978 20.5001 19.6832 20.5C18.1685 20.4999 16.716 19.8981 15.6451 18.827C14.5741 17.7559 13.9725 16.3033 13.9727 14.7887C13.9728 13.274 14.5746 11.8215 15.6456 10.7505C16.7167 9.67961 18.1694 9.07802 19.684 9.07813C21.1986 9.07824 22.6512 9.68003 23.7221 10.7511C24.7931 11.8222 25.3946 13.2748 25.3945 14.7895Z" fill="#58595B"/>
<path d="M33.5517 17.2369C33.5517 18.535 33.036 19.78 32.118 20.698C31.2001 21.6159 29.9551 22.1316 28.6569 22.1316C27.3588 22.1316 26.1138 21.6159 25.1958 20.698C24.2779 19.78 23.7622 18.535 23.7622 17.2369C23.7622 15.9387 24.2779 14.6937 25.1958 13.7758C26.1138 12.8578 27.3588 12.3421 28.6569 12.3421C29.9551 12.3421 31.2001 12.8578 32.118 13.7758C33.036 14.6937 33.5517 15.9387 33.5517 17.2369Z" fill="#58595B"/>
<path d="M23.7627 14.7895C23.7626 15.8714 23.3327 16.9089 22.5676 17.6739C21.8025 18.4388 20.7649 18.8685 19.683 18.8684C18.601 18.8683 17.5635 18.4384 16.7985 17.6733C16.0336 16.9082 15.6039 15.8706 15.604 14.7887C15.6041 13.7067 16.034 12.6692 16.7991 11.9042C17.1779 11.5255 17.6277 11.225 18.1226 11.0201C18.6176 10.8151 19.1481 10.7097 19.6838 10.7097C20.2195 10.7098 20.7499 10.8153 21.2448 11.0204C21.7397 11.2254 22.1894 11.526 22.5682 11.9048C22.947 12.2837 23.2474 12.7334 23.4523 13.2283C23.6573 13.7233 23.7628 14.2538 23.7627 14.7895Z" fill="#939598"/>
<path d="M21.3154 14.7895C21.3154 15.6901 20.4996 16.4211 19.6838 16.4211C18.868 16.4211 18.0522 15.6901 18.0522 14.7895C18.0522 14.3568 18.2241 13.9418 18.5301 13.6358C18.8361 13.3298 19.2511 13.1579 19.6838 13.1579C20.1165 13.1579 20.5315 13.3298 20.8375 13.6358C21.1435 13.9418 21.3154 14.3568 21.3154 14.7895Z" fill="#BCBEC0"/>
<path d="M30.2893 29.4737C30.2893 30.3391 29.9455 31.1691 29.3335 31.7811C28.7216 32.3931 27.8916 32.7368 27.0261 32.7368H16.4209C15.5554 32.7368 14.7254 32.3931 14.1135 31.7811C13.5015 31.1691 13.1577 30.3391 13.1577 29.4737V22.9474C13.1577 22.0819 13.5015 21.2519 14.1135 20.64C14.7254 20.028 15.5554 19.6842 16.4209 19.6842H27.0261C27.8916 19.6842 28.7216 20.028 29.3335 20.64C29.9455 21.2519 30.2893 22.0819 30.2893 22.9474V29.4737Z" fill="#58595B"/>
<path d="M24.5787 20.5H22.1313V18.0526H24.5787V20.5Z" fill="#58595B"/>
<path d="M31.9199 17.2368C31.9199 18.1023 31.5761 18.9323 30.9641 19.5442C30.3522 20.1562 29.5222 20.5 28.6567 20.5C27.7913 20.5 26.9613 20.1562 26.3493 19.5442C25.7374 18.9323 25.3936 18.1023 25.3936 17.2368C25.3936 16.3714 25.7374 15.5414 26.3493 14.9294C26.9613 14.3175 27.7913 13.9737 28.6567 13.9737C29.5222 13.9737 30.3522 14.3175 30.9641 14.9294C31.5761 15.5414 31.9199 16.3714 31.9199 17.2368Z" fill="#939598"/>
<path d="M30.2884 17.2368C30.2883 17.4512 30.2461 17.6634 30.164 17.8613C30.0819 18.0593 29.9617 18.2392 29.8101 18.3907C29.6585 18.5422 29.4786 18.6624 29.2806 18.7444C29.0825 18.8263 28.8703 18.8685 28.656 18.8684C28.4417 18.8684 28.2295 18.8261 28.0315 18.744C27.8335 18.662 27.6536 18.5417 27.5021 18.3901C27.3506 18.2386 27.2305 18.0586 27.1485 17.8606C27.0665 17.6626 27.0244 17.4503 27.0244 17.236C27.0245 16.8032 27.1966 16.3881 27.5027 16.0822C27.8088 15.7762 28.224 15.6043 28.6568 15.6044C29.0896 15.6046 29.5047 15.7766 29.8107 16.0827C30.1167 16.3889 30.2885 16.804 30.2884 17.2368Z" fill="#BCBEC0"/>
<path d="M13.9735 22.9474H12.3419L7.44714 19.6842H6.63135V31.1053H7.44714L12.3419 27.8421H13.9735C14.6225 27.8421 15.245 27.5843 15.704 27.1253C16.163 26.6663 16.4208 26.0438 16.4208 25.3947C16.4208 24.7457 16.163 24.1232 15.704 23.6642C15.245 23.2052 14.6225 22.9474 13.9735 22.9474Z" fill="#58595B"/>
<path d="M31.921 22.9474V23.7632H27.842C27.4093 23.7632 26.9943 23.9351 26.6883 24.241C26.3823 24.547 26.2104 24.962 26.2104 25.3947C26.2104 25.8275 26.3823 26.2425 26.6883 26.5484C26.9943 26.8544 27.4093 27.0263 27.842 27.0263H31.921V27.8421H34.3683V22.9474H31.921Z" fill="#58595B"/>
<path d="M27.842 30.2895H19.6841V22.1316H27.842V30.2895Z" fill="#808285"/>
<path d="M26.2102 28.6579H21.3154V23.7632H26.2102V28.6579Z" fill="#58595B"/>
<path d="M18.0516 28.6579C18.0515 28.8722 18.0093 29.0844 17.9272 29.2824C17.8451 29.4804 17.7249 29.6603 17.5733 29.8118C17.4217 29.9633 17.2418 30.0834 17.0437 30.1654C16.8457 30.2474 16.6335 30.2895 16.4192 30.2895C16.2049 30.2894 15.9927 30.2472 15.7947 30.1651C15.5967 30.083 15.4168 29.9628 15.2653 29.8112C15.1138 29.6596 14.9936 29.4797 14.9117 29.2816C14.8297 29.0836 14.7875 28.8714 14.7876 28.6571C14.7877 28.2242 14.9598 27.8092 15.2659 27.5032C15.572 27.1972 15.9872 27.0254 16.42 27.0255C16.8528 27.0256 17.2679 27.1977 17.5739 27.5038C17.8798 27.8099 18.0517 28.2251 18.0516 28.6579Z" fill="#808285"/>
</g>
</g>
<defs>
<clipPath id="clip0_134_14">
<rect width="31" height="31" fill="white" transform="translate(5 5)"/>
</clipPath>
</defs>
</svg>
