<svg width="42" height="43" viewBox="0 0 42 43" fill="none" xmlns="http://www.w3.org/2000/svg">
<rect y="0.110596" width="41.3484" height="42.0492" rx="20" fill="white"/>
<path d="M6.68105 22.3272L11.0465 24.8628L16.1358 10.7392C16.4272 9.93046 15.3787 9.32173 14.8209 9.97575L6.28143 19.9879C5.65567 20.7216 5.84721 21.8428 6.68105 22.3272Z" fill="#A9DCEA"/>
<path d="M8.57636 17.2971L6.28143 19.9879C5.65568 20.7216 5.8472 21.8428 6.68102 22.3272L11.0465 24.8628L13.7727 17.2971H8.57636Z" fill="#96D2E0"/>
<path d="M34.3184 22.3272L29.953 24.8628L24.8637 10.7391C24.5723 9.93044 25.6207 9.32171 26.1786 9.97573L34.7181 19.9879C35.3438 20.7215 35.1523 21.8428 34.3184 22.3272Z" fill="#A9DCEA"/>
<path d="M32.4235 17.2971H27.2271L29.9533 24.8628L34.3187 22.3272C35.1526 21.8428 35.3441 20.7216 34.7184 19.9879L32.4235 17.2971Z" fill="#96D2E0"/>
<path d="M35.0881 21.2929V29.1441C35.0881 30.3342 34.1233 31.299 32.9331 31.299H25.6987C25.1272 31.299 24.5763 31.0692 24.1722 30.6651C22.8622 29.3551 21.9601 28.453 20.4963 26.9891C19.0376 28.454 18.1361 29.3563 16.8201 30.6678C16.4162 31.0703 15.8664 31.299 15.2962 31.299H8.06656C6.87642 31.299 5.91162 30.3342 5.91162 29.1441V21.2929C5.91162 20.1028 6.87642 19.138 8.06656 19.138H32.9331C34.1233 19.138 35.0881 20.1028 35.0881 21.2929Z" fill="#C9EAF5"/>
<path d="M19.3811 25.8764C19.792 26.2823 20.1574 26.6477 20.4974 26.9876C19.036 28.4541 18.1379 29.3573 16.8187 30.6664C16.4178 31.0723 15.8646 31.3007 15.2964 31.3007H8.06572C7.18282 31.3007 6.42169 30.7679 6.0918 30.0068C6.35566 30.1235 6.64492 30.1844 6.94936 30.1844H14.18C14.7534 30.1844 15.3015 29.956 15.7023 29.5552C17.0216 28.2409 17.9197 27.3378 19.3811 25.8764Z" fill="#A9DCEA"/>
<path d="M35.0859 21.2944V29.1442C35.0859 30.3366 34.1218 31.3007 32.9345 31.3007H25.6987C25.1253 31.3007 24.5773 31.0673 24.1714 30.6664C23.7807 30.2757 23.4254 29.9205 23.0854 29.5805C23.4863 29.9662 24.0293 30.1844 24.5874 30.1844H29.6565C32.0414 30.1844 33.9747 28.2511 33.9747 25.8662V20.1781C33.9747 19.8737 33.9138 19.5844 33.7971 19.3206C34.5582 19.6504 35.0859 20.4115 35.0859 21.2944Z" fill="#A9DCEA"/>
<path d="M18.9661 22.0112V25.1706C18.9661 25.36 18.8875 25.5457 18.7542 25.6802C17.5012 26.9442 16.648 27.7923 15.5085 28.9311C15.3738 29.0657 15.1885 29.1441 14.9981 29.1441H8.78472C8.38801 29.1441 8.06641 28.8225 8.06641 28.4257V22.0112C8.06641 21.6145 8.38801 21.2929 8.78472 21.2929H18.2478C18.6445 21.2929 18.9661 21.6145 18.9661 22.0112Z" fill="#FF4848"/>
<path d="M18.9652 22.0099V22.6188H11.973C10.5471 22.6188 9.39021 23.7706 9.39021 25.1965V29.1442H8.78641C8.38553 29.1442 8.06592 28.8245 8.06592 28.4236V22.0099C8.06592 21.6141 8.38553 21.2944 8.78641 21.2944H18.2497C18.6455 21.2944 18.9652 21.6141 18.9652 22.0099Z" fill="#F91C1C"/>
<path d="M22.0332 22.0112V25.1706C22.0332 25.36 22.1118 25.5457 22.2451 25.6802C23.4981 26.9442 24.3513 27.7923 25.4907 28.9311C25.6254 29.0657 25.8108 29.1441 26.0012 29.1441H32.2146C32.6113 29.1441 32.9329 28.8225 32.9329 28.4257V22.0112C32.9329 21.6145 32.6113 21.2929 32.2146 21.2929H22.7515C22.3548 21.2929 22.0332 21.6145 22.0332 22.0112Z" fill="#6699FF"/>
<path d="M32.9345 22.0099V22.6188H26.1655C24.6179 22.6188 23.3595 23.8772 23.3595 25.4248V26.4955C23.3595 26.6832 23.4356 26.8709 23.5676 27.0029C23.7248 27.1602 23.8771 27.3124 24.0192 27.4595C23.4711 26.9166 22.913 26.3585 22.2432 25.6785C22.1113 25.5466 22.0352 25.3588 22.0352 25.1711V22.0099C22.0352 21.6141 22.3548 21.2944 22.7506 21.2944H32.2139C32.6097 21.2944 32.9345 21.6141 32.9345 22.0099Z" fill="#4E8CF2"/>
</svg>
