<svg width="42" height="43" viewBox="0 0 42 43" fill="none" xmlns="http://www.w3.org/2000/svg">
<rect y="0.110596" width="41.3484" height="42.0492" rx="20" fill="white"/>
<path d="M18.8733 7.45312C17.5074 15.4739 14.4211 23.1039 9.82653 29.8187L9.35938 30.5015L24.9921 34.8981L25.4592 34.2154C30.0538 27.5006 33.1401 19.8706 34.506 11.8498L18.8733 7.45312Z" fill="#6562F1"/>
<path d="M16.625 8.90625C15.0293 16.6046 11.7252 23.8783 6.93969 30.2275L6.45312 30.8731L21.9531 35.5469L22.4397 34.9013C27.2252 28.5521 30.5293 21.2784 32.125 13.5801L16.625 8.90625Z" fill="#8380F3"/>
<path d="M24.8516 14.0748L23.0128 13.4641L20.5703 20.8192L22.4091 21.4298C23.3844 21.7537 24.4485 21.6769 25.3672 21.2162C25.8221 20.9882 26.2276 20.6727 26.5606 20.2879C26.8935 19.9031 27.1475 19.4565 27.3078 18.9735C27.4682 18.4906 27.5319 17.9808 27.4953 17.4733C27.4586 16.9657 27.3224 16.4703 27.0943 16.0154C26.8662 15.5606 26.5507 15.155 26.1659 14.8221C25.7811 14.4891 25.3345 14.2351 24.8516 14.0748Z" fill="#E2AC40"/>
<path d="M17.1945 21.7645L17.0547 22.2282L24.3054 24.4146L24.4452 23.9508L17.1945 21.7645Z" fill="#6562F1"/>
<path d="M14.2038 23.2384L14.064 23.7022L24.9423 26.9824L25.0821 26.5186L14.2038 23.2384Z" fill="#6562F1"/>
<path d="M13.0363 25.187L12.8965 25.6508L23.6356 28.889L23.7755 28.4253L13.0363 25.187Z" fill="#6562F1"/>
<path d="M11.6374 27.1072L11.4976 27.571L22.3137 30.8325L22.4536 30.3686L11.6374 27.1072Z" fill="#6562F1"/>
<path d="M10.2888 29.1331L10.1489 29.5969L20.6108 32.7515L20.7507 32.2877L10.2888 29.1331Z" fill="#6562F1"/>
<path d="M33.1239 24.9451L32.6744 24.7645C32.8213 24.399 32.9661 24.0266 33.1048 23.6577L33.5582 23.8282C33.4182 24.2005 33.2721 24.5762 33.1239 24.9451ZM28.9152 33.2527L28.5035 32.9973C29.9502 30.6651 31.2155 28.2252 32.2883 25.6991L32.7343 25.8883C31.6517 28.4373 30.3749 30.8993 28.9152 33.2527ZM10.7864 20.455L10.3511 20.2426C10.4902 19.9573 10.6287 19.6667 10.7627 19.379L11.2018 19.5835C11.0666 19.8739 10.9269 20.1671 10.7864 20.455ZM11.6571 18.5793L11.2139 18.3838C12.0462 16.4955 12.7677 14.5604 13.3748 12.5881L13.8378 12.7305C13.2251 14.7208 12.497 16.6737 11.6571 18.5793Z" fill="#BEBEBE"/>
<path d="M27.472 17.2417L25.3197 16.527L25.167 16.9867L27.5053 17.7631C27.506 17.5888 27.4949 17.4146 27.472 17.2417ZM24.3997 19.2838L24.2471 19.7434L26.4034 20.4595C26.5252 20.3347 26.6383 20.2018 26.742 20.0616L24.3997 19.2838Z" fill="#F2C34E"/>
<path d="M24.1183 20.2401C25.8295 18.9549 26.1749 16.5258 24.8897 14.8146C23.6045 13.1034 21.1754 12.758 19.4642 14.0432C17.7529 15.3284 17.4076 17.7575 18.6928 19.4687C19.978 21.18 22.4071 21.5253 24.1183 20.2401Z" fill="#F2C34E"/>
<path d="M22.9839 15.4961L21.8205 15.1097C21.5992 15.0363 21.3588 15.0451 21.1435 15.1345C20.9281 15.224 20.7523 15.3882 20.6483 15.5969L19.7609 17.3766C19.7278 17.4429 19.7094 17.5156 19.7068 17.5896C19.7043 17.6636 19.7177 17.7373 19.7461 17.8057C19.7745 17.8741 19.8173 17.9356 19.8716 17.9861C19.9258 18.0365 19.9903 18.0747 20.0606 18.098C20.1636 18.1322 20.2747 18.1331 20.3783 18.1007C20.4818 18.0682 20.5725 18.004 20.6375 17.9171L21.0417 17.3769C21.1262 17.2639 21.2441 17.1804 21.3787 17.1382C21.5133 17.096 21.6577 17.0972 21.7916 17.1417C21.9255 17.1861 22.0419 17.2716 22.1245 17.3859C22.2071 17.5002 22.2517 17.6377 22.2518 17.7787L22.2526 18.4534C22.2527 18.5619 22.287 18.6677 22.3505 18.7556C22.4141 18.8436 22.5037 18.9093 22.6067 18.9435C22.677 18.9669 22.7514 18.9748 22.8251 18.9669C22.8987 18.9589 22.9698 18.9352 23.0335 18.8974C23.0972 18.8596 23.152 18.8086 23.1943 18.7477C23.2365 18.6869 23.2652 18.6177 23.2784 18.5448L23.6319 16.5877C23.6734 16.3582 23.6307 16.1215 23.5116 15.921C23.3926 15.7204 23.2052 15.5696 22.9839 15.4961Z" fill="#CC993E"/>
</svg>
