<svg width="26" height="27" viewBox="0 0 26 27" fill="none" xmlns="http://www.w3.org/2000/svg">
<g clip-path="url(#clip0_92_702)">
<path fill-rule="evenodd" clip-rule="evenodd" d="M26 13.5C26 20.9558 20.1797 27 13 27C5.8203 27 0 20.9558 0 13.5C0 6.04416 5.8203 0 13 0C20.1797 0 26 6.04416 26 13.5ZM13.4659 9.9663C12.2014 10.5124 9.67432 11.6428 5.88455 13.3575C5.26915 13.6116 4.94678 13.8602 4.91743 14.1033C4.86783 14.5142 5.36327 14.676 6.03793 14.8963C6.1297 14.9262 6.22478 14.9573 6.32227 14.9902C6.98602 15.2142 7.8789 15.4764 8.34306 15.4868C8.76411 15.4962 9.23404 15.316 9.75286 14.946C13.2938 12.4639 15.1216 11.2093 15.2363 11.1822C15.3173 11.1632 15.4295 11.1392 15.5055 11.2093C15.5815 11.2795 15.574 11.4124 15.566 11.448C15.5169 11.6653 13.5721 13.5429 12.5657 14.5145C12.252 14.8174 12.0294 15.0323 11.9839 15.0813C11.882 15.1913 11.7781 15.2952 11.6783 15.3952C11.0617 16.0125 10.5992 16.4754 11.7039 17.2314C12.2348 17.5947 12.6596 17.8951 13.0834 18.1948C13.5462 18.5221 14.0078 18.8486 14.6051 19.2551C14.7573 19.3587 14.9026 19.4663 15.0441 19.5711C15.5827 19.9698 16.0666 20.3281 16.6645 20.271C17.0118 20.2378 17.3707 19.8986 17.5529 18.8869C17.9836 16.496 18.8301 11.3158 19.0257 9.1811C19.0429 8.99407 19.0213 8.75472 19.004 8.64965C18.9867 8.54457 18.9505 8.39487 18.819 8.28405C18.6632 8.1528 18.4228 8.12513 18.3152 8.12709C17.8263 8.13604 17.0761 8.40692 13.4659 9.9663Z" fill="white"/>
</g>
<defs>
<clipPath id="clip0_92_702">
<rect width="26" height="27" fill="white"/>
</clipPath>
</defs>
</svg>
