<?xml version="1.0" encoding="utf-8"?>
<svg width="353" height="46" viewBox="0 0 353 46" fill="none" xmlns="http://www.w3.org/2000/svg">
  <g filter="url(#filter0_d_1_990)" style="filter: none;" transform="matrix(0.9999999999999999, 0, 0, 0.9999999999999999, -1.4210854715202004e-14, 0)">
    <path d="M13.0122 7.03022C14.3126 2.84891 18.1822 0 22.5611 0H340.433C347.078 0 351.875 6.3619 350.047 12.7509L342.707 38.4043C341.479 42.6955 337.556 45.6534 333.092 45.6534H14.5826C7.84185 45.6534 3.03188 39.1203 5.03373 32.6837L13.0122 7.03022Z" fill="#E33F36"/>
    <path d="M15.9066 9.79052C17.1468 6.1409 20.5735 3.68626 24.4281 3.68626H337.252C343.324 3.68626 347.654 9.57619 345.842 15.3718L339.221 36.5494C338.046 40.3061 334.567 42.8639 330.631 42.8639H17.2315C11.0664 42.8639 6.72649 36.8054 8.71009 30.9681L15.9066 9.79052Z" stroke="white" stroke-width="2"/>
    <rect x="48.1992" y="10.325" width="284.669" height="29.4994" rx="14.7497" fill="#0A0A0A"/>
  </g>
</svg>
