<?xml version="1.0" encoding="utf-8"?>
<svg width="353" height="46" viewBox="0 0 353 46" fill="none" xmlns="http://www.w3.org/2000/svg">
  <path d="M12.0122 7.03022C13.3126 2.84891 17.1822 0 21.5611 0H339.433C346.078 0 350.875 6.3619 349.047 12.7509L341.707 38.4043C340.479 42.6955 336.556 45.6534 332.092 45.6534H13.5826C6.84185 45.6534 2.03188 39.1203 4.03373 32.6837L12.0122 7.03022Z" fill="#FFD93B"/>
  <path d="M14.9068 9.79052C16.147 6.1409 19.5736 3.68626 23.4282 3.68626H336.252C342.324 3.68626 346.654 9.57619 344.842 15.3718L338.221 36.5494C337.047 40.3061 333.567 42.8639 329.631 42.8639H16.2317C10.0666 42.8639 5.72661 36.8054 7.71022 30.9681L14.9068 9.79052Z" stroke="white" stroke-width="2"/>
  <rect x="47.1992" y="10.325" width="284.669" height="29.4994" rx="14.7497" fill="#0A0A0A"/>
</svg>
