<svg width="34" height="39" viewBox="0 0 34 39" fill="none" xmlns="http://www.w3.org/2000/svg">
<g clip-path="url(#clip0_2238_2067)">
<path d="M32.4499 13.6052C32.2148 13.7762 28.0634 15.9688 28.0634 20.8442C28.0634 26.4834 33.3459 28.4784 33.504 28.5278C33.4796 28.6494 32.6648 31.26 30.7188 33.92C28.9837 36.2608 27.1715 38.5978 24.4148 38.5978C21.658 38.5978 20.9486 37.0968 17.7661 37.0968C14.6648 37.0968 13.5621 38.6472 11.0404 38.6472C8.51883 38.6472 6.75937 36.4812 4.73639 33.8212C2.39315 30.6976 0.499908 25.845 0.499908 21.2394C0.499908 13.8522 5.62423 9.93437 10.6675 9.93437C13.3472 9.93437 15.581 11.5836 17.2634 11.5836C18.8648 11.5836 21.3621 9.83557 24.4107 9.83557C25.5661 9.83557 29.7175 9.93437 32.4499 13.6052ZM22.9634 6.70817C24.2242 5.30597 25.1161 3.36037 25.1161 1.41477C25.1161 1.14497 25.0918 0.87137 25.0391 0.65097C22.9877 0.72317 20.5472 1.93157 19.0756 3.53137C17.9202 4.76257 16.8418 6.70817 16.8418 8.68037C16.8418 8.97677 16.8945 9.27317 16.9188 9.36817C17.0486 9.39097 17.2594 9.41757 17.4702 9.41757C19.3107 9.41757 21.6256 8.26237 22.9634 6.70817Z" fill="black"/>
</g>
<defs>
<clipPath id="clip0_2238_2067">
<rect width="33" height="38" fill="white" transform="translate(0.499908 0.65097)"/>
</clipPath>
</defs>
</svg>
