<svg width="38" height="37" viewBox="0 0 38 37" fill="none" xmlns="http://www.w3.org/2000/svg">
<g clip-path="url(#clip0_2238_2059)">
<path d="M1.38356 2.99322V33.6091C1.38378 33.6755 1.40534 33.7404 1.44553 33.7956C1.48571 33.8508 1.54274 33.8939 1.60946 33.9195C1.67618 33.945 1.74962 33.9519 1.82057 33.9392C1.89152 33.9265 1.95682 33.8949 2.00829 33.8483L19.354 18.3019L2.00829 2.75405C1.95682 2.70742 1.89152 2.67579 1.82057 2.66312C1.74962 2.65046 1.67618 2.65733 1.60946 2.68287C1.54274 2.70841 1.48571 2.75149 1.44553 2.8067C1.40534 2.86191 1.38378 2.92679 1.38356 2.99322Z" fill="white"/>
<path d="M26.627 11.9139L4.87763 0.901519L4.86406 0.894508C4.4894 0.707541 4.13338 1.1734 4.44023 1.4445L21.4893 16.4268L26.627 11.9139Z" fill="white"/>
<path d="M4.44193 35.1594C4.13338 35.4305 4.4894 35.8964 4.86576 35.7094L4.87932 35.7024L26.627 24.69L21.4893 20.1755L4.44193 35.1594Z" fill="white"/>
<path d="M35.4071 16.3544L29.3336 13.2803L23.6229 18.3019L29.3336 23.3212L35.4071 20.2495C37.0592 19.4105 37.0592 17.1934 35.4071 16.3544Z" fill="white"/>
</g>
<defs>
<clipPath id="clip0_2238_2059">
<rect width="37" height="36" fill="white" transform="translate(0.499908 0.65097)"/>
</clipPath>
</defs>
</svg>
